<?xml version="1.0" encoding="utf-8"?>
<!-- Generator: Adobe Illustrator 23.0.3, SVG Export Plug-In . SVG Version: 6.00 Build 0)  -->
<svg version="1.1"
	 id="svg8442" inkscape:export-filename="D:\Cathrin Blank\Logos\ot-logo-v1-2.png" inkscape:export-xdpi="90" inkscape:export-ydpi="90" inkscape:version="0.92.3 (2405546, 2018-03-11)" sodipodi:docname="heilpraxis--logo.svg" xmlns:cc="http://creativecommons.org/ns#" xmlns:dc="http://purl.org/dc/elements/1.1/" xmlns:inkscape="http://www.inkscape.org/namespaces/inkscape" xmlns:rdf="http://www.w3.org/1999/02/22-rdf-syntax-ns#" xmlns:sodipodi="http://sodipodi.sourceforge.net/DTD/sodipodi-0.dtd" xmlns:svg="http://www.w3.org/2000/svg"
	 xmlns="http://www.w3.org/2000/svg" xmlns:xlink="http://www.w3.org/1999/xlink" x="0px" y="0px" viewBox="0 0 8192 2011.4"
	 style="enable-background:new 0 0 8192 2011.4;" xml:space="preserve">
<style type="text/css">
	.st0{fill:#5AA897;stroke:#B3B3B3;stroke-width:1.6787;stroke-linecap:round;stroke-linejoin:round;}
	.st1{enable-background:new    ;}
	.st2{fill:#FFFFFF;}
	.st3{fill:#FFFFFF;stroke:#FFFFFF;stroke-width:57;stroke-miterlimit:10;}
</style>
<path id="rect4398" class="st0" d="M2.5,0h8474.2c0.7,0,1.3,0.6,1.3,1.4V2010c0,0.8-0.6,1.4-1.3,1.4H2.5c-0.7,0-1.3-0.6-1.3-1.4V1.4
	C1.3,0.6,1.9,0,2.5,0z"/>
<g class="st1">
	<path class="st2" d="M552.4,1468.8c0,29.8,5.5,50.9,16.6,63.3c11,12.4,28.1,18.6,51.3,18.6c9.4,0,18.4-1.4,27.1-4.3
		c8.7-2.8,16.3-8,22.9-15.6c6.5-7.5,11.8-18,15.8-31.4c4-13.4,6-30.7,6-51.8v-109c-11.4,14.8-26,27.4-44,37.9
		c-17.9,10.6-40.1,15.8-66.6,15.8c-7.7,0-16.8-0.8-27.1-2.3c-10.4-1.5-21.1-4.9-32.2-10.3c-11.1-5.4-21.9-13.5-32.7-24.4
		s-20.3-25.5-28.6-44s-15.2-41.5-20.4-69.1c-5.2-27.6-7.8-61-7.8-100.2V960.3c0-37.5,2.6-69.4,7.8-95.7c5.2-26.3,12-48.3,20.4-66.1
		s18-31.7,28.9-41.7c10.9-10,21.9-17.7,33.2-22.9s22.2-8.5,32.9-9.8s20.3-2,28.6-2c16.7,0,31.5,2.2,44.5,6.5
		c12.9,4.4,24.1,10.1,33.7,17.3c9.5,7.2,17.7,15.3,24.4,24.4s12.4,18.1,17.1,27.1l11.5-68.3h99v664.2c0,38.5-3.7,73.3-11.1,104.3
		c-7.4,31-18.9,57.4-34.7,79.4c-15.8,21.9-35.8,38.8-60,50.5c-24.3,11.7-53.3,17.6-87.2,17.6c-22.8,0-44.2-2-64.3-6
		c-20.1-4-37.7-11.1-52.8-21.4c-15.1-10.2-27-24.1-35.7-41.7c-8.7-17.6-13.1-40-13.1-67.1c0-4.7,0.5-10.6,1.5-17.6
		c1-7,2.7-14.6,5-22.6H552.4z M624.8,1294c8.4,0,15.8-1.4,22.4-4.3s12.4-6.6,17.6-11.3s9.7-10,13.6-16.1s7.1-12.2,9.8-18.6V865.4
		c-6.4-14.1-14.8-26-25.4-35.9c-10.6-9.9-23.4-14.8-38.4-14.8c-9.4,0-17.9,1.7-25.6,5s-14.4,9.6-20.1,18.8s-10.1,21.9-13.3,38.2
		s-4.8,37.3-4.8,63v227.6c0,25.8,1.6,46.9,4.8,63.3s7.6,29.3,13.3,38.7s12.5,15.8,20.4,19.3S615.4,1294,624.8,1294z"/>
	<path class="st2" d="M1114.8,1429.1c-29.8,0-56.2-5.5-79.1-16.6s-42.3-28.3-58-51.8c-15.8-23.4-27.6-53.5-35.7-90.2
		c-8-36.7-12-80.8-12-132.4v-130.6c0-43.9,3.3-81.5,9.8-112.8s15.1-57.6,25.6-78.9c10.5-21.3,22.8-38.1,36.7-50.5
		c13.9-12.4,28.2-21.9,43-28.4s29.4-10.7,44-12.6c14.6-1.8,28-2.8,40.5-2.8c22.8,0,44.7,3.4,65.8,10.3c21.1,6.9,39.7,18.6,55.8,35.2
		s28.9,38.8,38.4,66.6c9.5,27.8,14.3,62.5,14.3,104c0,14.1-0.4,28.3-1.3,42.7s-1.9,28.6-3.3,42.5c-1.3,13.9-3.1,27.4-5.3,40.5
		c-2.2,13.1-4.4,25.1-6.8,36.2h-229.6v70.3c0,30.2,1.2,55.5,3.5,76.1s6.3,37.2,11.8,49.7s13.1,21.6,22.6,27.1s21.5,8.3,35.9,8.3
		c7.7,0,15.2-1.6,22.6-4.8s13.8-8.5,19.3-15.8s10-17.2,13.3-29.4s5-27.4,5-45.5v-21.6h106v26.6c0,65.7-15.7,113.5-47,143.4
		C1219.3,1414.1,1174,1429.1,1114.8,1429.1z M1185.1,1014.1c0.3-3.7,0.7-8.6,1-14.8c0.3-6.2,0.6-12.6,0.8-19.3
		c0.2-6.7,0.3-13.3,0.3-19.8s0-12.2,0-16.8c0-45.5-5.4-78.4-16.1-98.5s-26.6-30.2-47.7-30.2c-11.1,0-20.8,2.6-29.1,7.8
		s-15.3,13.9-20.6,26.1s-9.4,28.4-12.1,48.5s-4,45-4,74.9v42.2H1185.1z"/>
	<path class="st2" d="M1384.1,1276.9c0-15.1,1.4-29.6,4.3-43.7s5.6-25.3,8.3-33.7h89.4c0,25.1,1.3,46.2,3.8,63.1
		c2.5,16.9,6.6,30.4,12.3,40.4c5.7,10.1,13.3,17.3,22.9,21.6c9.5,4.4,21.2,6.5,34.9,6.5c19.1,0,33-5.4,41.7-16.1
		s13.1-23.1,13.1-37.2c0-7.4-1-14.4-3-21.1c-2-6.7-4.9-13.5-8.5-20.3s-8.2-13.8-13.6-20.9s-11.4-14.7-18.1-23.1l-93-109.5
		c-12.1-15.1-23.7-30.4-34.9-46s-21.1-31.7-29.6-48.2c-8.5-16.6-15.4-33.9-20.6-52s-7.8-37.2-7.8-57.3c0-26.8,4.6-50.1,13.8-69.8
		s21.6-36.2,37.2-49.3c15.6-13.1,33.6-22.8,54-29.1c20.4-6.4,42-9.5,64.8-9.5c25.1,0,47.7,3,67.8,9s37.3,15.1,51.8,27.1
		s25.5,27,33.2,45s11.6,38.8,11.6,62.5c0,16.1-1.4,31.7-4.3,46.7c-2.8,15.1-5.6,28-8.3,38.7h-87.9c-0.3-22.8-1.3-42.7-3-59.8
		c-1.7-17.1-4.8-31.2-9.3-42.5c-4.5-11.2-10.7-19.7-18.6-25.4c-7.9-5.7-18.2-8.5-30.9-8.5c-11.1,0-20.3,1.8-27.6,5.3
		c-7.4,3.5-13.3,8.1-17.8,13.8c-4.5,5.7-7.7,12-9.5,19.1s-2.8,14.2-2.8,21.6c0,16.1,3.8,31,11.5,44.7s17.9,28.6,30.7,44.7
		l101.5,119.1c7.4,9,15.9,20,25.6,32.9c9.7,12.9,18.9,27.1,27.6,42.7c8.7,15.6,16.1,32.6,22.1,51c6,18.4,9,37.7,9,57.8
		c0,24.5-3.9,46.6-11.6,66.6s-19.1,36.9-34.2,51c-15.1,14.1-33.6,25-55.5,32.7c-21.9,7.7-47,11.5-75.1,11.5
		c-23.1,0-44.9-2.6-65.3-7.8c-20.4-5.2-38.2-13.7-53.3-25.6c-15.1-11.9-27-27.5-35.7-47C1388.5,1329.3,1384.1,1305.3,1384.1,1276.9z
		"/>
	<path class="st2" d="M1828.9,729.7H1956v520c0,30.5,4.7,51.7,14.1,63.6s23.1,17.8,41.2,17.8c12.7,0,25.1-3.5,37.2-10.5
		s22.9-17.1,32.7-30.2V729.7h127.1v691.9h-97l-12.5-73.9h-0.5c-10,15.8-20.7,28.9-31.9,39.4c-11.2,10.6-23,18.9-35.2,25.1
		c-12.2,6.2-24.7,10.6-37.4,13.3c-12.7,2.7-25.5,4-38.2,4c-40.5,0-71.8-14.1-93.7-42.2s-32.9-70.7-32.9-127.6V729.7z"/>
	<path class="st2" d="M2341,729.7h98l11.5,73.9v0.5c10-15.7,20.8-28.9,32.4-39.4c11.6-10.5,23.5-19,35.9-25.4
		c12.4-6.4,25-10.9,37.9-13.6c12.9-2.7,25.7-4,38.4-4c40.5,0,71.8,14.2,93.7,42.5s32.9,70.8,32.9,127.4v530.1h-127.1V896
		c0-30.5-4.7-51.7-14.1-63.6s-23.1-17.8-41.2-17.8c-12.7,0-25.4,4.2-37.9,12.6s-23.7,19.9-33.4,34.7v559.7H2341V729.7z"/>
	<path class="st2" d="M2986.2,1429.6c-7.7,0-16.8-0.8-27.1-2.3c-10.4-1.5-21.1-5-32.2-10.3c-11.1-5.4-21.9-13.4-32.7-24.1
		s-20.3-25.4-28.6-44s-15.2-41.6-20.4-69.1s-7.8-60.8-7.8-100V960.3c0-38.9,2.8-71.7,8.3-98.5s12.8-49,21.9-66.6
		c9-17.6,19.2-31.3,30.4-41.2s22.4-17.2,33.7-21.9s21.9-7.5,32.2-8.5s18.7-1.5,25.4-1.5c12.4,0,24.1,1.7,35.2,5
		c11.1,3.4,21.1,7.8,30.2,13.3c9,5.5,17.1,11.7,24.1,18.6c7,6.9,12.9,13.8,17.6,20.8l0.5-0.5l-4-87.4V507.6h126.6v913.9h-99
		l-11-64.3c-5.7,9-12.2,17.9-19.6,26.6c-7.4,8.7-16.1,16.5-26.1,23.4s-21.4,12.3-34.2,16.3
		C3016.7,1427.6,3002.3,1429.6,2986.2,1429.6z M3029.4,1331.1c8.4,0,15.8-1.4,22.4-4.3s12.4-6.5,17.6-11.1
		c5.2-4.5,9.7-9.8,13.6-15.8s7.1-12.2,9.8-18.6v-416c-6.4-14.1-14.8-26-25.4-35.9c-10.6-9.9-23.4-14.8-38.4-14.8
		c-9.4,0-17.9,1.7-25.6,5s-14.4,9.6-20.1,18.8s-10.1,21.9-13.3,38.2s-4.8,37.3-4.8,63V1205c0,25.8,1.6,46.9,4.8,63.3
		s7.6,29.2,13.3,38.4s12.5,15.6,20.4,19.1S3020,1331.1,3029.4,1331.1z"/>
	<path class="st2" d="M3350,507.6h127.1v162.8l-6.5,118.6c9.4-13.1,19.5-23.9,30.4-32.4c10.9-8.5,22.1-15.4,33.7-20.6
		s23.3-8.9,35.2-11.1c11.9-2.2,23.7-3.3,35.4-3.3c40.5,0,71.8,14.2,93.7,42.5s32.9,70.8,32.9,127.4v530.1h-127.1V896
		c0-30.5-4.7-51.7-14.1-63.6s-23.1-17.8-41.2-17.8c-12.7,0-25.5,4.3-38.4,12.8c-12.9,8.5-24.2,20.4-33.9,35.4v558.7H3350V507.6z"/>
	<path class="st2" d="M4030.4,1429.1c-29.8,0-56.2-5.5-79.1-16.6s-42.3-28.3-58-51.8c-15.8-23.4-27.6-53.5-35.7-90.2
		c-8-36.7-12-80.8-12-132.4v-130.6c0-43.9,3.3-81.5,9.8-112.8s15.1-57.6,25.6-78.9c10.5-21.3,22.8-38.1,36.7-50.5
		c13.9-12.4,28.2-21.9,43-28.4s29.4-10.7,44-12.6c14.6-1.8,28-2.8,40.5-2.8c22.8,0,44.7,3.4,65.8,10.3c21.1,6.9,39.7,18.6,55.8,35.2
		s28.9,38.8,38.4,66.6c9.5,27.8,14.3,62.5,14.3,104c0,14.1-0.4,28.3-1.3,42.7s-1.9,28.6-3.3,42.5c-1.3,13.9-3.1,27.4-5.3,40.5
		c-2.2,13.1-4.4,25.1-6.8,36.2h-229.6v70.3c0,30.2,1.2,55.5,3.5,76.1s6.3,37.2,11.8,49.7s13.1,21.6,22.6,27.1s21.5,8.3,35.9,8.3
		c7.7,0,15.2-1.6,22.6-4.8s13.8-8.5,19.3-15.8s10-17.2,13.3-29.4s5-27.4,5-45.5v-21.6h106v26.6c0,65.7-15.7,113.5-47,143.4
		C4135,1414.1,4089.7,1429.1,4030.4,1429.1z M4100.8,1014.1c0.3-3.7,0.7-8.6,1-14.8c0.3-6.2,0.6-12.6,0.8-19.3
		c0.2-6.7,0.3-13.3,0.3-19.8s0-12.2,0-16.8c0-45.5-5.4-78.4-16.1-98.5s-26.6-30.2-47.7-30.2c-11.1,0-20.8,2.6-29.1,7.8
		s-15.3,13.9-20.6,26.1s-9.4,28.4-12.1,48.5s-4,45-4,74.9v42.2H4100.8z"/>
	<path class="st2" d="M4394.8,630.7c-23.5,0-42-7-55.5-21.1s-20.3-34.7-20.3-61.8c0-15.1,1.8-27.7,5.3-37.9s8.5-18.4,15.1-24.6
		c6.5-6.2,14.5-10.7,23.9-13.6s20.1-4.3,32.2-4.3c25.1,0,44.2,6.4,57.3,19.1c13.1,12.7,19.6,33.2,19.6,61.3c0,26.1-6.6,46.5-19.8,61
		C4439.1,623.5,4419.9,630.7,4394.8,630.7z M4329,729.7h127.1v691.9H4329V729.7z"/>
	<path class="st2" d="M4603.4,820.2h-53.8v-90.4h64.8l25.6-179.4h90.4v179.4H4841v90.4h-110.5v440.1c0,15.1,1.4,27.2,4.3,36.4
		c2.8,9.2,6.8,16.4,11.8,21.6s10.9,8.6,17.6,10.3c6.7,1.7,13.7,2.5,21.1,2.5c12.4,0,23.4-1.5,32.9-4.5s18.7-7.2,27.4-12.6v70.3
		c-7.4,9.1-15.3,16.4-23.9,22.1c-8.5,5.7-17.3,10.3-26.4,13.8c-9,3.5-18.3,5.9-27.6,7.3s-18.6,2-27.6,2c-17.8,0-34.8-2.4-51.3-7
		c-16.4-4.7-31-13.7-43.7-26.9c-12.7-13.2-22.9-31.6-30.4-55c-7.5-23.4-11.3-53.9-11.3-91.5V820.2z"/>
	<path class="st2" d="M4900.9,1276.9c0-15.1,1.4-29.6,4.3-43.7s5.6-25.3,8.3-33.7h89.4c0,25.1,1.3,46.2,3.8,63.1
		c2.5,16.9,6.6,30.4,12.3,40.4c5.7,10.1,13.3,17.3,22.9,21.6c9.5,4.4,21.2,6.5,34.9,6.5c19.1,0,33-5.4,41.7-16.1
		s13.1-23.1,13.1-37.2c0-7.4-1-14.4-3-21.1c-2-6.7-4.9-13.5-8.5-20.3s-8.2-13.8-13.6-20.9s-11.4-14.7-18.1-23.1l-93-109.5
		c-12.1-15.1-23.7-30.4-34.9-46s-21.1-31.7-29.6-48.2c-8.5-16.6-15.4-33.9-20.6-52s-7.8-37.2-7.8-57.3c0-26.8,4.6-50.1,13.8-69.8
		s21.6-36.2,37.2-49.3c15.6-13.1,33.6-22.8,54-29.1c20.4-6.4,42-9.5,64.8-9.5c25.1,0,47.7,3,67.8,9s37.3,15.1,51.8,27.1
		s25.5,27,33.2,45s11.6,38.8,11.6,62.5c0,16.1-1.4,31.7-4.3,46.7c-2.8,15.1-5.6,28-8.3,38.7H5136c-0.3-22.8-1.3-42.7-3-59.8
		c-1.7-17.1-4.8-31.2-9.3-42.5c-4.5-11.2-10.7-19.7-18.6-25.4c-7.9-5.7-18.2-8.5-30.9-8.5c-11.1,0-20.3,1.8-27.6,5.3
		c-7.4,3.5-13.3,8.1-17.8,13.8c-4.5,5.7-7.7,12-9.5,19.1s-2.8,14.2-2.8,21.6c0,16.1,3.8,31,11.5,44.7s17.9,28.6,30.7,44.7
		l101.5,119.1c7.4,9,15.9,20,25.6,32.9c9.7,12.9,18.9,27.1,27.6,42.7c8.7,15.6,16.1,32.6,22.1,51c6,18.4,9,37.7,9,57.8
		c0,24.5-3.9,46.6-11.6,66.6s-19.1,36.9-34.2,51c-15.1,14.1-33.6,25-55.5,32.7c-21.9,7.7-47,11.5-75.1,11.5
		c-23.1,0-44.9-2.6-65.3-7.8c-20.4-5.2-38.2-13.7-53.3-25.6c-15.1-11.9-27-27.5-35.7-47C4905.2,1329.3,4900.9,1305.3,4900.9,1276.9z
		"/>
	<path class="st3" d="M5471.7,1460.8v184.4h-127.1V729.7h99.5l11.6,72.8c5.7-9.4,12.5-18.9,20.3-28.6s17.1-18.3,27.6-25.9
		c10.5-7.5,22.4-13.7,35.7-18.6c13.2-4.9,28-7.3,44.5-7.3c7,0,15.5,0.7,25.4,2s20.1,4.7,30.7,10.1c10.5,5.4,21.1,13.3,31.7,23.9
		c10.5,10.6,19.9,25,28.1,43.5c8.2,18.4,14.9,41.4,20.1,68.8s7.8,60.8,7.8,100v209.5c0,39.2-2.6,72.5-7.8,100s-12,50.4-20.3,68.8
		s-17.9,33-28.6,43.7s-21.6,18.8-32.7,24.1c-11.1,5.3-21.8,8.8-32.2,10.3c-10.4,1.5-19.4,2.3-27.1,2.3c-26.8,0-49.2-5.2-67.1-15.6
		c-17.9-10.4-32.6-22.9-44-37.7L5471.7,1460.8z M5471.7,1280.4c2.7,6.7,5.9,13.1,9.8,19.1c3.8,6,8.4,11.4,13.6,16.1
		s11.1,8.5,17.6,11.3s14.1,4.3,22.9,4.3c9.4,0,17.9-1.8,25.6-5.3s14.4-9.9,20.1-19.1c5.7-9.2,10.1-22,13.3-38.4s4.8-37.5,4.8-63.3
		V940.2c0-25.8-1.6-46.8-4.8-63s-7.5-29.1-13.1-38.4s-12.2-15.8-19.9-19.1s-16.2-5-25.6-5c-16.1,0-29.2,4.8-39.5,14.3
		s-18.5,20.7-24.9,33.4V1280.4z"/>
	<path class="st3" d="M5842.1,729.7h93l11.1,70.3c14.1-26.1,30.2-45.7,48.5-58.8s36.9-19.6,56-19.6c36.5,0,63.5,11.2,80.9,33.7
		c17.4,22.4,26.1,56.1,26.1,101c0,5.7-0.4,12.5-1.3,20.4c-0.8,7.9-2,16.1-3.5,24.6c-1.5,8.5-3.4,17.1-5.5,25.6
		c-2.2,8.5-4.4,16.3-6.8,23.4h-88.4V886c0-14.1-0.9-25.6-2.8-34.7s-4.3-16.3-7.3-21.9s-6.5-9.4-10.5-11.6c-4-2.2-8.4-3.3-13.1-3.3
		c-10.1,0-19.4,3.3-27.9,9.8s-15.7,15.7-21.3,27.4v569.8h-127.1V729.7z"/>
	<path class="st3" d="M6333.6,1429.1c-21.4,0-40.5-4.3-57-12.8s-30.6-20.2-42-34.9s-20-32.2-25.9-52.5c-5.9-20.3-8.8-42.3-8.8-66.1
		c0-28.5,3.5-53.8,10.5-75.9c7-22.1,17.3-42,30.9-59.8s30.4-33.9,50.5-48.5s43.4-28.4,69.8-41.5c12.7-6.4,27-12.8,43-19.3
		s30.1-12.1,42.5-16.8v-91.4c0-13.4-0.5-25.9-1.5-37.4s-3.4-21.6-7.3-30.2c-3.8-8.5-9.6-15.2-17.3-20.1s-18.3-7.3-31.7-7.3
		c-9,0-17.8,1.7-26.4,5c-8.5,3.3-16.1,9-22.6,17.1c-6.5,8-11.7,18.8-15.6,32.2c-3.9,13.4-5.8,30-5.8,49.8v30.1h-97
		c-3-13.1-5.3-25-6.8-35.9c-1.5-10.9-2.3-21.7-2.3-32.4c0-25.8,4.4-48.6,13.3-68.3s21.3-36.3,37.2-49.8c15.9-13.4,34.9-23.5,57-30.4
		c22.1-6.9,46.4-10.3,72.9-10.3c34.5,0,63.1,3.8,85.9,11.3s41,18.8,54.5,33.9c13.6,15.1,23.1,34,28.6,56.8s8.3,49.4,8.3,79.9v518
		h-94.5l-9-59.3c-13.8,19.8-32.1,35.8-55,48.2C6389.3,1422.9,6363,1429.1,6333.6,1429.1z M6389.8,1331.1c10.7,0,21.2-2.8,31.4-8.3
		s18.8-12.3,25.9-20.4V1086c-6.7,2.7-14.2,5.9-22.6,9.5s-17.4,8.5-27.1,14.6c-9,5.7-17.9,12.6-26.6,20.6c-8.7,8-16.5,17.6-23.4,28.6
		s-12.4,23.5-16.6,37.4s-6.3,29.4-6.3,46.5c0,26.5,5.2,47.7,15.6,63.8C6350.5,1323.1,6367.1,1331.1,6389.8,1331.1z"/>
	<path class="st3" d="M6793.4,1070.4l-136.7-340.7h130.1l73.9,226.6h1l78.4-226.6h121.6l-131.1,328.6l147.2,363.3h-130.1
		l-85.4-238.7h-4l-86.4,238.7h-122.1L6793.4,1070.4z"/>
	<path class="st3" d="M7223.6,630.7c-23.5,0-42-7-55.5-21.1s-20.3-34.7-20.3-61.8c0-15.1,1.8-27.7,5.3-37.9s8.5-18.4,15.1-24.6
		c6.5-6.2,14.5-10.7,23.9-13.6s20.1-4.3,32.2-4.3c25.1,0,44.2,6.4,57.3,19.1c13.1,12.7,19.6,33.2,19.6,61.3c0,26.1-6.6,46.5-19.8,61
		C7267.8,623.5,7248.7,630.7,7223.6,630.7z M7157.7,729.7h127.1v691.9h-127.1V729.7z"/>
	<path class="st3" d="M7390.4,1276.9c0-15.1,1.4-29.6,4.3-43.7s5.6-25.3,8.3-33.7h89.4c0,25.1,1.3,46.2,3.8,63.1
		c2.5,16.9,6.6,30.4,12.3,40.4c5.7,10.1,13.3,17.3,22.9,21.6c9.5,4.4,21.2,6.5,34.9,6.5c19.1,0,33-5.4,41.7-16.1
		s13.1-23.1,13.1-37.2c0-7.4-1-14.4-3-21.1c-2-6.7-4.9-13.5-8.5-20.3s-8.2-13.8-13.6-20.9s-11.4-14.7-18.1-23.1l-93-109.5
		c-12.1-15.1-23.7-30.4-34.9-46s-21.1-31.7-29.6-48.2c-8.5-16.6-15.4-33.9-20.6-52s-7.8-37.2-7.8-57.3c0-26.8,4.6-50.1,13.8-69.8
		s21.6-36.2,37.2-49.3c15.6-13.1,33.6-22.8,54-29.1c20.4-6.4,42-9.5,64.8-9.5c25.1,0,47.7,3,67.8,9s37.3,15.1,51.8,27.1
		s25.5,27,33.2,45s11.6,38.8,11.6,62.5c0,16.1-1.4,31.7-4.3,46.7c-2.8,15.1-5.6,28-8.3,38.7h-87.9c-0.3-22.8-1.3-42.7-3-59.8
		c-1.7-17.1-4.8-31.2-9.3-42.5c-4.5-11.2-10.7-19.7-18.6-25.4c-7.9-5.7-18.2-8.5-30.9-8.5c-11.1,0-20.3,1.8-27.6,5.3
		c-7.4,3.5-13.3,8.1-17.8,13.8c-4.5,5.7-7.7,12-9.5,19.1s-2.8,14.2-2.8,21.6c0,16.1,3.8,31,11.5,44.7s17.9,28.6,30.7,44.7
		l101.5,119.1c7.4,9,15.9,20,25.6,32.9c9.7,12.9,18.9,27.1,27.6,42.7c8.7,15.6,16.1,32.6,22.1,51c6,18.4,9,37.7,9,57.8
		c0,24.5-3.9,46.6-11.6,66.6s-19.1,36.9-34.2,51c-15.1,14.1-33.6,25-55.5,32.7c-21.9,7.7-47,11.5-75.1,11.5
		c-23.1,0-44.9-2.6-65.3-7.8c-20.4-5.2-38.2-13.7-53.3-25.6c-15.1-11.9-27-27.5-35.7-47C7394.8,1329.3,7390.4,1305.3,7390.4,1276.9z
		"/>
</g>
</svg>
