<?xml version="1.0" encoding="UTF-8" standalone="no"?>
<!-- Created with Inkscape (http://www.inkscape.org/) -->

<svg
   xmlns:dc="http://purl.org/dc/elements/1.1/"
   xmlns:cc="http://creativecommons.org/ns#"
   xmlns:rdf="http://www.w3.org/1999/02/22-rdf-syntax-ns#"
   xmlns:svg="http://www.w3.org/2000/svg"
   xmlns="http://www.w3.org/2000/svg"
   xmlns:sodipodi="http://sodipodi.sourceforge.net/DTD/sodipodi-0.dtd"
   xmlns:inkscape="http://www.inkscape.org/namespaces/inkscape"
   width="196.36636in"
   height="48.274887in"
   viewBox="0 0 5486.4755 1348.8004"
   version="1.1"
   id="svg8442"
   inkscape:version="0.92.3 (2405546, 2018-03-11)"
   sodipodi:docname="heilpraxis--logo.svg"
   inkscape:export-filename="D:\Cathrin Blank\Logos\ot-logo-v1-2.png"
   inkscape:export-xdpi="90"
   inkscape:export-ydpi="90">
  <defs
     id="defs8436">
    <inkscape:path-effect
       effect="bspline"
       id="path-effect12959"
       is_visible="true"
       weight="33.333333"
       steps="2"
       helper_size="0"
       apply_no_weight="true"
       apply_with_weight="true"
       only_selected="false" />
    <inkscape:path-effect
       effect="bspline"
       id="path-effect12955"
       is_visible="true"
       weight="33.333333"
       steps="2"
       helper_size="0"
       apply_no_weight="true"
       apply_with_weight="true"
       only_selected="false" />
    <inkscape:path-effect
       effect="bspline"
       id="path-effect12951"
       is_visible="true"
       weight="33.333333"
       steps="2"
       helper_size="0"
       apply_no_weight="true"
       apply_with_weight="true"
       only_selected="false" />
  </defs>
  <sodipodi:namedview
     id="base"
     pagecolor="#ffffff"
     bordercolor="#666666"
     borderopacity="1.0"
     inkscape:pageopacity="0"
     inkscape:pageshadow="2"
     inkscape:zoom="0.059883914"
     inkscape:cx="10963.878"
     inkscape:cy="3742.1206"
     inkscape:document-units="mm"
     inkscape:current-layer="layer1"
     showgrid="false"
     inkscape:pagecheckerboard="true"
     units="in"
     inkscape:showpageshadow="true"
     borderlayer="false"
     inkscape:window-width="1920"
     inkscape:window-height="1017"
     inkscape:window-x="-8"
     inkscape:window-y="-8"
     inkscape:window-maximized="1"
     inkscape:snap-text-baseline="true"
     scale-x="1.1"
     fit-margin-top="0"
     fit-margin-left="0"
     fit-margin-right="0"
     fit-margin-bottom="0"
     showguides="true"
     inkscape:guide-bbox="true" />
  <metadata
     id="metadata8439">
    <rdf:RDF>
      <cc:Work
         rdf:about="">
        <dc:format>image/svg+xml</dc:format>
        <dc:type
           rdf:resource="http://purl.org/dc/dcmitype/StillImage" />
        <dc:title></dc:title>
      </cc:Work>
    </rdf:RDF>
  </metadata>
  <g
     inkscape:label="Ebene 1"
     inkscape:groupmode="layer"
     id="layer1"
     transform="translate(5702.9085,912.67211)">
    <rect
       style="opacity:1;fill:#5aa897;fill-opacity:1;fill-rule:nonzero;stroke:#b3b3b3;stroke-width:1.67867565;stroke-linecap:round;stroke-linejoin:round;stroke-miterlimit:4;stroke-dasharray:none;stroke-opacity:1"
       id="rect4398"
       width="5677.2476"
       height="1347.1216"
       x="-5702.0688"
       y="-911.83276"
       rx="0.87489343"
       ry="0.93547231" />
    <text
       xml:space="preserve"
       style="font-style:normal;font-weight:normal;font-size:10.58333302px;line-height:6.61458302px;font-family:sans-serif;letter-spacing:0px;word-spacing:0px;fill:#000000;fill-opacity:1;stroke:none;stroke-width:0.26458332"
       x="2183.7122"
       y="894.49725"
       id="text12945"><tspan
         sodipodi:role="line"
         id="tspan12943"
         x="2183.7122"
         y="900.55371"
         style="stroke-width:0.26458332" /></text>
    <g
       aria-label="heilpraxis"
       transform="matrix(0.68973207,0,0,0.62738149,776.51798,-2779.9792)"
       style="font-style:normal;font-weight:normal;font-size:40px;line-height:25px;font-family:sans-serif;letter-spacing:0px;word-spacing:0px;opacity:1;fill:#ffffff;fill-opacity:1;stroke:none;stroke-width:74.99598694;stroke-miterlimit:4;stroke-dasharray:none;stroke-dashoffset:0;stroke-opacity:1"
       id="flowRoot4755-1">
      <path
         d="m -9001.6868,3403.1685 h 164.7135 v 210.9375 l -8.4635,153.6458 q 18.2291,-25.3906 39.0625,-41.6667 21.4843,-16.927 43.6198,-26.6927 22.7864,-10.4166 45.5729,-14.3229 23.4375,-4.5573 46.2239,-4.5573 78.7761,0 121.0938,55.3386 42.9687,54.6875 42.9687,164.7135 v 686.849 h -164.7135 v -680.9896 q 0,-59.2448 -18.2292,-82.0313 -18.2291,-23.4375 -53.3854,-23.4375 -24.7396,0 -50.1302,16.9271 -24.7396,16.2761 -43.6198,45.5729 v 723.9584 h -164.7135 z"
         style="font-style:normal;font-variant:normal;font-weight:normal;font-stretch:normal;font-size:1333.33337402px;font-family:'Fjalla One';-inkscape-font-specification:'Fjalla One';fill:#ffffff;stroke:none;stroke-width:74.99598694;stroke-miterlimit:4;stroke-dasharray:none;stroke-dashoffset:0;stroke-opacity:1"
         id="path4439" />
      <path
         d="m -8118.8743,4597.1789 q -57.9427,0 -102.8646,-21.4844 -44.2708,-21.4843 -74.8698,-67.0572 -30.599,-45.573 -46.224,-116.5365 -15.625,-71.6146 -15.625,-171.875 v -169.2709 q 0,-85.2864 12.3698,-145.8333 13.0209,-61.1979 33.2032,-102.2135 20.8333,-41.6667 47.526,-65.7552 27.3438,-24.0886 55.9896,-36.4584 28.6458,-13.0208 56.6406,-16.276 28.6458,-3.9063 52.7344,-3.9063 44.2708,0 85.2865,13.6719 41.0156,13.0208 72.2656,45.5729 31.25,31.9011 49.4791,85.9375 18.8803,54.0365 18.8803,134.7657 0,27.3437 -1.9532,55.3385 -1.3021,27.9948 -3.9062,55.3385 -2.6042,26.6927 -7.1615,52.0834 -3.9062,25.3906 -8.4635,46.875 h -297.5261 v 91.1458 q 0,58.5938 4.5573,98.9583 4.5573,39.7136 14.974,64.4532 11.0677,24.0885 29.2969,35.1562 18.8802,10.4167 46.875,10.4167 14.9739,0 29.2968,-5.8594 14.3229,-6.5104 24.7396,-20.8333 11.0677,-14.3229 17.5781,-37.7604 6.5105,-24.0886 6.5105,-59.2448 v -27.9948 h 137.3698 v 34.5052 q 0,127.6042 -61.198,186.1979 -60.5468,57.9427 -175.7812,57.9427 z m 91.1458,-537.7604 q 0.6511,-7.1615 1.3021,-18.8802 0.651,-12.3698 0.651,-25.3906 0.6511,-13.0209 0.6511,-25.3907 0,-13.0208 0,-22.1354 0,-88.5417 -20.8334,-127.6042 -20.8333,-39.0625 -61.8489,-39.0625 -21.4844,0 -37.7604,10.4167 -16.2761,9.7656 -26.6927,33.8542 -10.4167,23.4375 -15.625,62.5 -5.2084,39.0625 -5.2084,97.0052 v 54.6875 z"
         style="font-style:normal;font-variant:normal;font-weight:normal;font-stretch:normal;font-size:1333.33337402px;font-family:'Fjalla One';-inkscape-font-specification:'Fjalla One';fill:#ffffff;stroke:none;stroke-width:74.99598694;stroke-miterlimit:4;stroke-dasharray:none;stroke-dashoffset:0;stroke-opacity:1"
         id="path4441" />
      <path
         d="m -7645.567,3562.6737 q -45.5729,0 -72.2656,-27.3438 -26.0417,-27.3437 -26.0417,-80.0781 0,-29.2969 6.5105,-48.8281 7.1614,-20.1823 19.5312,-31.9011 13.0208,-12.3698 31.25,-17.5781 18.2292,-5.8594 41.6667,-5.8594 48.8281,0 74.2187,24.7396 25.3906,24.7396 25.3906,79.4271 0,50.7813 -26.0416,79.4271 -25.3906,27.9948 -74.2188,27.9948 z m -85.2864,128.2552 h 164.7135 v 896.4844 h -164.7135 z"
         style="font-style:normal;font-variant:normal;font-weight:normal;font-stretch:normal;font-size:1333.33337402px;font-family:'Fjalla One';-inkscape-font-specification:'Fjalla One';fill:#ffffff;stroke:none;stroke-width:74.99598694;stroke-miterlimit:4;stroke-dasharray:none;stroke-dashoffset:0;stroke-opacity:1"
         id="path4443" />
      <path
         d="m -7392.3118,3403.1685 h 164.7135 v 1184.2448 h -164.7135 z"
         style="font-style:normal;font-variant:normal;font-weight:normal;font-stretch:normal;font-size:1333.33337402px;font-family:'Fjalla One';-inkscape-font-specification:'Fjalla One';fill:#ffffff;stroke:none;stroke-width:74.99598694;stroke-miterlimit:4;stroke-dasharray:none;stroke-dashoffset:0;stroke-opacity:1"
         id="path4445" />
      <path
         d="m -6891.6608,4638.1945 v 238.9323 h -164.7135 V 3690.9289 h 128.9062 l 14.974,94.401 q 11.0677,-18.2291 26.0416,-37.1093 15.625,-18.8802 35.8073,-33.2032 20.8334,-14.9739 46.224,-24.0885 26.0417,-9.7656 57.9427,-9.7656 13.6719,0 32.5521,2.6041 19.5312,2.6042 39.7135,13.0209 20.8334,10.4166 41.0156,31.25 20.8334,20.1823 36.4584,55.9896 16.276,35.8072 26.0417,89.1927 10.4166,53.3854 10.4166,129.5573 v 271.4843 q 0,76.1719 -10.4166,129.5573 -9.7657,53.3855 -26.0417,89.1928 -16.2761,35.8072 -37.1094,56.6406 -20.8333,20.8333 -42.3177,31.25 -21.4844,10.4166 -41.6667,13.0208 -20.1823,3.2552 -35.1562,3.2552 -52.0834,0 -87.2396,-20.1823 -34.5052,-20.1823 -56.6406,-48.8281 z m 0,-233.7239 q 5.2083,13.0208 12.3698,24.7396 7.8125,11.7187 17.5781,20.8333 10.4167,9.1146 22.7865,14.974 13.0208,5.2083 29.9479,5.2083 18.2292,0 33.2031,-6.5104 14.974,-7.1615 26.0417,-24.7396 11.0677,-18.2292 16.9271,-50.1302 6.5104,-31.9011 6.5104,-82.0313 v -343.0989 q 0,-50.1302 -6.5104,-81.3802 -5.8594,-31.9011 -16.9271,-50.1303 -10.4167,-18.2291 -25.3906,-24.7395 -14.974,-6.5105 -33.2032,-6.5105 -31.25,0 -51.4323,18.8802 -19.5312,18.2292 -31.901,42.9688 z"
         style="stroke:#ffffff;stroke-width:74.99598694;stroke-miterlimit:4;stroke-dasharray:none"
         id="path4447" />
      <path
         d="m -6410.5409,3690.9289 h 120.4428 l 14.3229,91.1458 q 27.3437,-50.7812 62.5,-76.1718 35.8073,-25.3907 72.9166,-25.3907 70.9636,0 104.8178,43.6198 33.8541,43.6198 33.8541,130.8594 0,11.0677 -1.9531,26.6927 -1.3021,14.974 -4.5573,31.9011 -2.6042,16.276 -7.1614,33.2031 -3.9063,16.276 -8.4636,29.9479 h -114.5833 v -83.3333 q 0,-27.3438 -3.9063,-44.9219 -3.2552,-17.5781 -9.1146,-27.9948 -5.8593,-11.0677 -13.6718,-14.974 -7.8125,-4.5573 -16.9271,-4.5573 -19.5313,0 -36.4584,13.0209 -16.276,12.3698 -27.3437,35.1562 v 738.2813 h -164.7136 z"
         style="stroke:#ffffff;stroke-width:74.99598694;stroke-miterlimit:4;stroke-dasharray:none"
         id="path4449" />
      <path
         d="m -5773.8222,4597.1789 q -41.6666,0 -74.2187,-16.276 -31.9011,-16.9271 -54.0365,-45.5729 -22.1354,-28.6459 -33.8542,-67.7084 -11.0677,-39.7135 -11.0677,-85.9375 0,-55.3385 13.6719,-98.3073 13.6719,-42.9687 39.7136,-77.4739 26.6927,-34.5052 65.7552,-62.5 39.0625,-28.6459 90.4948,-54.0365 24.7395,-12.3698 55.3385,-24.7396 31.25,-13.0208 55.3385,-22.1354 v -118.4896 q 0,-26.0416 -1.9531,-48.1771 -1.9531,-22.7864 -9.7656,-39.0625 -7.1615,-16.9271 -22.1354,-26.0416 -14.974,-9.7657 -41.0157,-9.7657 -17.5781,0 -34.5052,6.5105 -16.276,6.5104 -29.2968,22.1354 -12.3698,15.625 -20.1823,41.6666 -7.1615,26.0417 -7.1615,64.4532 v 39.0625 h -125.651 q -5.8594,-25.3907 -9.1146,-46.224 -2.6042,-21.4844 -2.6042,-42.3177 0,-50.1302 16.9271,-88.5417 17.5781,-38.4114 48.1771,-64.4531 31.25,-26.0417 74.2187,-39.0625 42.9688,-13.6719 94.4011,-13.6719 67.0573,0 111.3281,14.974 44.2708,14.3229 70.3125,43.6198 26.6927,29.2969 37.1094,73.5677 11.0677,44.2708 11.0677,103.5156 v 671.224 h -122.3958 l -11.7188,-76.8229 q -26.6927,38.4114 -71.6146,62.5 -44.2708,24.0885 -101.5625,24.0885 z m 72.9167,-126.9531 q 20.8333,0 40.3646,-10.4167 20.1823,-11.0677 33.8541,-26.6927 v -280.5989 q -13.0208,5.2083 -29.2968,12.3697 -16.2761,7.1615 -35.1563,18.8803 -17.5781,11.0677 -34.5052,26.6927 -16.9271,15.625 -30.599,37.1093 -13.0208,21.4844 -21.4843,48.8282 -7.8125,26.6927 -7.8125,59.8958 0,51.4323 20.1823,82.6823 20.1823,31.25 64.4531,31.25 z"
         style="stroke:#ffffff;stroke-width:74.99598694;stroke-miterlimit:4;stroke-dasharray:none"
         id="path4451" />
      <path
         d="m -5178.1191,4132.3352 -177.0833,-441.4063 h 168.6198 l 95.7031,293.6198 h 1.3021 l 101.5625,-293.6198 h 157.5521 l -169.9219,425.7813 190.7552,470.7031 h -168.6198 l -110.677,-309.2448 h -5.2084 l -111.9791,309.2448 h -158.2032 z"
         style="stroke:#ffffff;stroke-width:74.99598694;stroke-miterlimit:4;stroke-dasharray:none"
         id="path4453" />
      <path
         d="m -4619.5252,3562.6737 q -45.5729,0 -72.2656,-27.3438 -26.0417,-27.3437 -26.0417,-80.0781 0,-29.2969 6.5104,-48.8281 7.1615,-20.1823 19.5313,-31.9011 13.0208,-12.3698 31.25,-17.5781 18.2291,-5.8594 41.6666,-5.8594 48.8281,0 74.2188,24.7396 25.3906,24.7396 25.3906,79.4271 0,50.7813 -26.0417,79.4271 -25.3906,27.9948 -74.2187,27.9948 z m -85.2865,128.2552 h 164.7136 v 896.4844 h -164.7136 z"
         style="stroke:#ffffff;stroke-width:74.99598694;stroke-miterlimit:4;stroke-dasharray:none"
         id="path4455" />
      <path
         d="m -4404.0306,4399.9133 q 0,-29.2969 5.2083,-56.6406 5.8594,-27.3438 11.0677,-43.6198 h 115.8855 q 0,48.8281 4.5573,82.0312 5.2083,32.5521 16.276,52.0834 11.0677,19.5312 29.2969,27.9948 18.8802,8.4635 45.5729,8.4635 37.1094,0 54.0365,-20.8333 16.927,-20.8334 16.927,-48.1771 0,-14.3229 -3.9062,-27.3438 -3.9063,-13.0208 -11.0677,-26.0416 -7.1615,-13.6719 -17.5781,-27.3438 -10.4167,-13.6719 -23.4375,-29.9479 l -120.4428,-141.9271 q -23.4375,-29.2969 -45.5729,-59.2448 -21.4844,-30.599 -38.4114,-62.5 -16.2761,-32.5521 -26.6927,-67.7083 -9.7657,-35.1563 -9.7657,-74.2188 0,-52.0833 17.5782,-90.4948 18.2291,-38.4114 48.177,-63.8021 30.599,-25.3906 70.3125,-37.7604 39.7136,-12.3698 83.9844,-12.3698 48.8281,0 87.8906,11.7188 39.0625,11.7187 67.0573,35.1562 27.9948,23.4375 42.9688,58.5938 14.9739,34.5052 14.9739,80.7292 0,31.25 -5.8593,60.5468 -5.2084,29.2969 -10.4167,50.1302 h -113.9323 q -0.651,-44.2708 -3.9062,-77.4739 -3.2552,-33.2031 -12.3698,-54.6875 -8.4636,-22.1354 -24.0886,-33.2032 -14.9739,-11.0677 -39.7135,-11.0677 -21.4844,0 -35.8073,7.1615 -14.3229,6.5104 -23.4375,17.5781 -8.4636,11.0677 -12.3698,24.7396 -3.2552,13.6719 -3.2552,27.9948 0,31.25 14.9739,57.9427 14.974,26.6927 39.7136,57.9427 l 131.5104,154.2969 q 14.3229,17.5781 33.2031,42.9688 18.8802,24.7395 35.8073,55.3385 16.9271,29.9479 28.6459,65.7552 11.7187,35.8073 11.7187,74.8698 0,47.526 -14.9739,86.5885 -14.974,38.4115 -44.2709,65.7553 -29.2969,27.3437 -72.2656,42.3177 -42.3177,14.9739 -97.0052,14.9739 -44.9219,0 -84.6354,-9.7656 -39.7136,-10.4167 -69.0105,-33.2031 -29.2968,-23.4375 -46.2239,-61.1979 -16.9271,-37.7605 -16.9271,-93.099 z"
         style="stroke:#ffffff;stroke-width:74.99598694;stroke-miterlimit:4;stroke-dasharray:none"
         id="path4457" />
    </g>
    <g
       aria-label="blank"
       transform="matrix(0.55876979,0,0,0.50825797,3336.6988,-2081.3868)"
       style="font-style:normal;font-weight:normal;font-size:40px;line-height:25px;font-family:sans-serif;letter-spacing:0px;word-spacing:0px;opacity:1;fill:#ffffff;fill-opacity:1;stroke:none;stroke-width:74.99598694;stroke-miterlimit:4;stroke-dasharray:none;stroke-dashoffset:0;stroke-opacity:1"
       id="flowRoot4755-1-8">
      <path
         d="m -9025.4364,3623.9612 h 118.4933 v 171.8855 l -3.7468,85.2403 0.4683,0.4683 q 7.962,-11.2405 18.2658,-21.5442 10.7721,-10.3038 23.886,-18.2658 13.5822,-8.4303 29.5062,-13.1139 16.3924,-4.6835 35.5949,-4.6835 9.8354,0 23.4176,1.8734 14.0506,1.8734 28.5695,9.3671 14.9873,7.4936 29.5063,22.4809 14.9873,14.5189 26.2277,40.2784 11.7089,25.7594 18.7342,64.1643 7.4936,38.405 7.4936,93.2022 v 195.3032 q 0,54.7973 -7.4936,93.2023 -7.0253,38.4049 -18.7342,64.6327 -11.7088,25.7594 -26.6961,40.7467 -14.9873,14.9873 -30.4429,22.4809 -15.4557,7.4937 -29.9746,9.3671 -14.5189,2.3417 -25.2911,2.3417 -22.4809,0 -40.7467,-5.6202 -17.7974,-5.6202 -31.848,-14.9873 -13.5822,-9.8354 -24.3543,-22.0126 -10.3038,-12.1772 -18.2658,-24.8227 l -9.8354,59.9492 h -92.7339 z m 118.4933,721.2635 q 3.7468,8.8987 8.8987,17.3291 5.6203,8.4303 12.6455,14.9873 7.0253,6.0886 16.3924,10.3037 9.3671,3.7469 21.0759,3.7469 13.1139,0 23.886,-4.6836 10.7721,-5.1518 18.7341,-17.7974 7.962,-13.1139 12.1772,-36.0632 4.6835,-22.9492 4.6835,-59.0124 v -246.822 q 0,-36.0632 -4.6835,-58.5441 -4.2152,-22.9493 -12.1772,-36.0632 -7.4936,-13.1139 -18.2658,-17.7974 -10.7721,-4.6836 -23.886,-4.6836 -22.0126,0 -36.5315,13.1139 -14.0506,12.6455 -22.9493,30.443 z"
         style="font-style:normal;font-variant:normal;font-weight:normal;font-stretch:normal;font-size:959.18682861px;font-family:'Fjalla One';-inkscape-font-specification:'Fjalla One';fill:#ffffff;stroke:none;stroke-width:74.99598694;stroke-miterlimit:4;stroke-dasharray:none;stroke-dashoffset:0;stroke-opacity:1"
         id="path4460" />
      <path
         d="m -8560.8303,3623.9612 h 118.4933 v 851.934 h -118.4933 z"
         style="font-style:normal;font-variant:normal;font-weight:normal;font-stretch:normal;font-size:959.18682861px;font-family:'Fjalla One';-inkscape-font-specification:'Fjalla One';fill:#ffffff;stroke:none;stroke-width:74.99598694;stroke-miterlimit:4;stroke-dasharray:none;stroke-dashoffset:0;stroke-opacity:1"
         id="path4462" />
      <path
         d="m -8230.1731,4482.9205 q -29.9746,0 -53.3922,-11.7088 -22.9493,-12.1772 -38.8733,-32.7847 -15.924,-20.6076 -24.3544,-48.7087 -7.962,-28.5696 -7.962,-61.8226 0,-39.81 9.8355,-70.7213 9.8354,-30.9113 28.5695,-55.734 19.2025,-24.8227 47.3036,-44.9619 28.1012,-20.6075 65.1011,-38.8733 17.7974,-8.8987 39.81,-17.7974 22.4809,-9.3671 39.81,-15.924 v -85.2403 q 0,-18.7341 -1.4051,-34.6581 -1.405,-16.3923 -7.0253,-28.1012 -5.1518,-12.1771 -15.924,-18.7341 -10.7721,-7.0253 -29.5062,-7.0253 -12.6455,0 -24.8227,4.6836 -11.7088,4.6835 -21.0759,15.924 -8.8987,11.2404 -14.5189,29.9746 -5.1519,18.7341 -5.1519,46.3669 v 28.1012 h -90.3921 q -4.2152,-18.2658 -6.557,-33.2531 -1.8734,-15.4556 -1.8734,-30.4429 0,-36.0632 12.1772,-63.696 12.6455,-27.6329 34.6581,-46.367 22.481,-18.7341 53.3922,-28.1011 30.9113,-9.8355 67.9112,-9.8355 48.2404,0 80.0884,10.7722 31.848,10.3037 50.5821,31.3796 19.2025,21.0759 26.6961,52.9239 7.962,31.848 7.962,74.4681 v 482.8719 h -88.0503 l -8.4304,-55.2657 q -19.2025,27.6329 -51.5188,44.9619 -31.848,17.3291 -73.0631,17.3291 z m 52.4556,-91.3288 q 14.9872,0 29.0378,-7.4937 14.519,-7.962 24.3544,-19.2025 v -201.8601 q -9.3671,3.7468 -21.0759,8.8987 -11.7088,5.1519 -25.2911,13.5823 -12.6455,7.962 -24.8227,19.2024 -12.1771,11.2405 -22.0125,26.6962 -9.3671,15.4556 -15.4557,35.1264 -5.6202,19.2025 -5.6202,43.0885 0,36.9999 14.5189,59.4808 14.519,22.481 46.367,22.481 z"
         style="font-style:normal;font-variant:normal;font-weight:normal;font-stretch:normal;font-size:959.18682861px;font-family:'Fjalla One';-inkscape-font-specification:'Fjalla One';fill:#ffffff;stroke:none;stroke-width:74.99598694;stroke-miterlimit:4;stroke-dasharray:none;stroke-dashoffset:0;stroke-opacity:1"
         id="path4464" />
      <path
         d="m -7886.4021,3830.9732 h 91.3288 l 10.7722,68.8479 v 0.4683 q 14.0505,-22.0126 29.9745,-36.5315 16.3924,-14.9873 33.7215,-23.886 17.329,-8.8987 35.1264,-12.6455 18.2658,-3.7469 36.0632,-3.7469 56.6707,0 87.1137,39.81 30.9113,39.3417 30.9113,118.4933 v 494.1124 h -118.4933 V 3985.998 q 0,-42.6201 -13.1139,-59.0125 -13.1139,-16.8607 -38.405,-16.8607 -17.7974,0 -35.5948,11.7089 -17.3291,11.7088 -30.9113,32.3163 v 521.7452 h -118.4933 z"
         style="font-style:normal;font-variant:normal;font-weight:normal;font-stretch:normal;font-size:959.18682861px;font-family:'Fjalla One';-inkscape-font-specification:'Fjalla One';fill:#ffffff;stroke:none;stroke-width:74.99598694;stroke-miterlimit:4;stroke-dasharray:none;stroke-dashoffset:0;stroke-opacity:1"
         id="path4466" />
      <path
         d="m -7406.8086,3623.9612 h 118.4933 v 490.3655 h 3.7468 l 129.2655,-283.3535 h 113.8097 l -143.316,295.0623 156.8983,349.8597 h -120.8351 l -135.8224,-319.8851 h -3.7468 v 319.8851 h -118.4933 z"
         style="font-style:normal;font-variant:normal;font-weight:normal;font-stretch:normal;font-size:959.18682861px;font-family:'Fjalla One';-inkscape-font-specification:'Fjalla One';fill:#ffffff;stroke:none;stroke-width:74.99598694;stroke-miterlimit:4;stroke-dasharray:none;stroke-dashoffset:0;stroke-opacity:1"
         id="path4468" />
    </g>
    <g
       aria-label="cathrin"
       transform="matrix(0.40487371,0,0,0.36827383,1953.2541,-1952.9015)"
       style="font-style:normal;font-weight:normal;font-size:40px;line-height:25px;font-family:sans-serif;letter-spacing:0px;word-spacing:0px;opacity:1;fill:#ffffff;fill-opacity:1;stroke:none;stroke-width:74.99598694;stroke-miterlimit:4;stroke-dasharray:none;stroke-dashoffset:0;stroke-opacity:1"
       id="flowRoot4755-1-3">
      <path
         d="m -8865.0152,4491.2464 q -85.3823,0 -130.527,-70.1706 -44.654,-70.1705 -44.654,-213.9465 v -127.5828 q 0,-64.2821 9.3234,-109.9174 9.3233,-46.1261 24.5351,-77.0404 15.7025,-31.405 35.3306,-49.561 20.1189,-18.156 41.2191,-27.4794 21.1002,-9.814 41.7098,-12.2676 20.6095,-2.9442 37.7841,-2.9442 34.3492,0 62.81,9.3234 28.4607,8.8326 49.0703,27.4793 20.6095,18.1561 31.8957,46.1261 11.2861,27.9701 11.2861,65.7542 0,23.5538 -2.4535,40.7284 -1.9628,16.6839 -5.8884,32.3864 h -99.122 v -22.5724 q 0,-51.0331 -12.2676,-79.4938 -11.7769,-28.9515 -39.2562,-28.9515 -15.2118,0 -26.498,7.3605 -11.2862,6.8699 -19.1374,24.0445 -7.3606,17.1746 -11.2862,46.1261 -3.4349,28.9514 -3.4349,72.624 v 191.8649 q 0,44.1632 2.9442,75.0775 2.9442,30.9143 10.3048,50.5424 7.3605,19.1375 19.6281,27.9701 12.2676,8.8327 30.4236,8.8327 9.3233,0 18.156,-4.4164 8.8326,-4.907 15.2118,-15.7024 6.8698,-10.7955 10.7955,-28.4608 4.4163,-18.156 4.4163,-44.654 v -21.1002 h 106.9732 v 26.0072 q 0,96.1778 -42.6911,140.3411 -42.2005,43.6726 -126.6014,43.6726 z"
         style="font-style:normal;font-variant:normal;font-weight:normal;font-stretch:normal;font-size:1004.95977783px;line-height:13.69508553px;font-family:'Fjalla One';-inkscape-font-specification:'Fjalla One';fill:#ffffff;stroke:none;stroke-width:74.99598694;stroke-miterlimit:4;stroke-dasharray:none;stroke-dashoffset:0;stroke-opacity:1"
         id="path4471" />
      <path
         d="m -8501.4043,4491.2464 q -31.405,0 -55.9401,-12.2676 -24.0445,-12.7583 -40.7284,-34.3492 -16.6839,-21.591 -25.5165,-51.0331 -8.342,-29.9329 -8.342,-64.7728 0,-41.7098 10.3048,-74.0962 10.3048,-32.3864 29.9329,-58.3936 20.1188,-26.0073 49.561,-47.1075 29.4422,-21.591 68.2077,-40.7284 18.6467,-9.3233 41.7098,-18.6467 23.5537,-9.8141 41.7097,-16.6839 v -89.308 q 0,-19.6281 -1.4721,-36.312 -1.4721,-17.1746 -7.3605,-29.4422 -5.3978,-12.7582 -16.6839,-19.6281 -11.2862,-7.3605 -30.9143,-7.3605 -13.249,0 -26.0073,4.907 -12.2676,4.907 -22.0816,16.6839 -9.3234,11.7769 -15.2118,31.405 -5.3978,19.6281 -5.3978,48.5796 v 29.4422 h -94.7056 q -4.4164,-19.1374 -6.8699,-34.8399 -1.9628,-16.1932 -1.9628,-31.8957 0,-37.7842 12.7583,-66.7356 13.249,-28.9515 36.312,-48.5796 23.5538,-19.6282 55.9402,-29.4422 32.3864,-10.3048 71.1519,-10.3048 50.5424,0 83.9102,11.2862 33.3678,10.7955 52.9959,32.8771 20.1189,22.0816 27.9701,55.4494 8.342,33.3678 8.342,78.0218 v 505.9148 h -92.2522 l -8.8327,-57.9029 q -20.1188,28.9514 -53.9773,47.1075 -33.3678,18.156 -76.5497,18.156 z m 54.9588,-95.6871 q 15.7025,0 30.4236,-7.8513 15.2118,-8.3419 25.5165,-20.1188 v -211.493 q -9.814,3.9256 -22.0816,9.3234 -12.2676,5.3977 -26.498,14.2303 -13.249,8.342 -26.0072,20.1189 -12.7583,11.7768 -23.0631,27.97 -9.814,16.1932 -16.1932,36.8028 -5.8884,20.1188 -5.8884,45.1446 0,38.7656 15.2118,62.3193 15.2118,23.5538 48.5796,23.5538 z"
         style="font-style:normal;font-variant:normal;font-weight:normal;font-stretch:normal;font-size:1004.95977783px;line-height:13.69508553px;font-family:'Fjalla One';-inkscape-font-specification:'Fjalla One';fill:#ffffff;stroke:none;stroke-width:74.99598694;stroke-miterlimit:4;stroke-dasharray:none;stroke-dashoffset:0;stroke-opacity:1"
         id="path4473" />
      <path
         d="m -8126.9979,3896.5143 h -52.5052 v -88.3265 h 63.3007 l 25.0258,-175.181 h 88.3266 v 175.181 h 107.9547 v 88.3265 H -8002.85 v 429.8559 q 0,22.0816 3.9256,35.8213 4.4163,13.249 11.7769,21.1002 7.3605,7.3605 17.1746,9.8141 9.8141,2.4535 20.6095,2.4535 18.156,0 31.8957,-4.4164 14.2304,-4.4163 26.9887,-12.2675 v 68.6984 q -10.7955,13.249 -23.5538,21.5909 -12.2675,8.342 -25.5165,13.7397 -13.249,4.907 -26.9887,6.8699 -13.7397,1.9628 -26.9887,1.9628 -26.0072,0 -50.0517,-6.8699 -24.0444,-6.8698 -42.6911,-26.0072 -18.6467,-19.6282 -29.9329,-53.9774 -10.7955,-34.3492 -10.7955,-89.3079 z"
         style="font-style:normal;font-variant:normal;font-weight:normal;font-stretch:normal;font-size:1004.95977783px;line-height:13.69508553px;font-family:'Fjalla One';-inkscape-font-specification:'Fjalla One';fill:#ffffff;stroke:none;stroke-width:74.99598694;stroke-miterlimit:4;stroke-dasharray:none;stroke-dashoffset:0;stroke-opacity:1"
         id="path4475" />
      <path
         d="m -7809.5131,3591.297 h 124.1479 v 158.9878 l -6.3791,115.8059 q 13.7397,-19.1374 29.4422,-31.405 16.1932,-12.7583 32.8771,-20.1188 17.1746,-7.8512 34.3492,-10.7955 17.6653,-3.4349 34.8399,-3.4349 59.375,0 91.2707,41.7098 32.3864,41.219 32.3864,124.1478 v 517.6917 h -124.1478 v -513.2753 q 0,-44.654 -13.7397,-61.8286 -13.7397,-17.6653 -40.2377,-17.6653 -18.6467,0 -37.7841,12.7583 -18.6467,12.2675 -32.8771,34.3492 v 545.6617 h -124.1479 z"
         style="font-style:normal;font-variant:normal;font-weight:normal;font-stretch:normal;font-size:1004.95977783px;line-height:13.69508553px;font-family:'Fjalla One';-inkscape-font-specification:'Fjalla One';fill:#ffffff;stroke:none;stroke-width:74.99598694;stroke-miterlimit:4;stroke-dasharray:none;stroke-dashoffset:0;stroke-opacity:1"
         id="path4477" />
      <path
         d="m -7307.0331,3808.1878 h 90.7801 l 10.7955,68.6984 q 20.6095,-38.2748 47.1074,-57.4123 26.9887,-19.1374 54.9588,-19.1374 53.4866,0 79.0032,32.8771 25.5165,32.8771 25.5165,98.6313 0,8.342 -1.4721,20.1188 -0.9814,11.2862 -3.4349,24.0445 -1.9628,12.2676 -5.3977,25.0259 -2.9443,12.2675 -6.3792,22.5723 h -86.3637 v -62.81 q 0,-20.6095 -2.9442,-33.8585 -2.4535,-13.249 -6.8699,-21.1002 -4.4163,-8.342 -10.3047,-11.2862 -5.8885,-3.4349 -12.7583,-3.4349 -14.7211,0 -27.4794,9.814 -12.2676,9.3234 -20.6095,26.498 v 556.4572 h -124.1479 z"
         style="font-style:normal;font-variant:normal;font-weight:normal;font-stretch:normal;font-size:1004.95977783px;line-height:13.69508553px;font-family:'Fjalla One';-inkscape-font-specification:'Fjalla One';fill:#ffffff;stroke:none;stroke-width:74.99598694;stroke-miterlimit:4;stroke-dasharray:none;stroke-dashoffset:0;stroke-opacity:1"
         id="path4479" />
      <path
         d="m -6854.1143,3711.5193 q -34.3492,0 -54.4681,-20.6096 -19.6281,-20.6095 -19.6281,-60.3564 0,-22.0817 4.907,-36.8028 5.3978,-15.2117 14.7211,-24.0444 9.8141,-9.3234 23.5538,-13.249 13.7397,-4.4163 31.405,-4.4163 36.8027,0 55.9401,18.6467 19.1374,18.6467 19.1374,59.8658 0,38.2748 -19.6281,59.8657 -19.1374,21.1003 -55.9401,21.1003 z m -64.2821,96.6685 h 124.1478 v 675.698 h -124.1478 z"
         style="font-style:normal;font-variant:normal;font-weight:normal;font-stretch:normal;font-size:1004.95977783px;line-height:13.69508553px;font-family:'Fjalla One';-inkscape-font-specification:'Fjalla One';fill:#ffffff;stroke:none;stroke-width:74.99598694;stroke-miterlimit:4;stroke-dasharray:none;stroke-dashoffset:0;stroke-opacity:1"
         id="path4481" />
      <path
         d="m -6665.1935,3808.1878 h 95.6871 l 11.2862,72.1333 v 0.4907 q 14.7211,-23.063 31.405,-38.2748 17.1746,-15.7025 35.3306,-25.0259 18.156,-9.3233 36.8027,-13.249 19.1374,-3.9256 37.7842,-3.9256 59.375,0 91.2707,41.7098 32.3864,41.219 32.3864,124.1478 v 517.6917 h -124.1478 v -513.2753 q 0,-44.654 -13.7397,-61.8286 -13.7397,-17.6653 -40.2377,-17.6653 -18.6467,0 -37.2934,12.2676 -18.156,12.2675 -32.3864,33.8585 v 546.6431 h -124.1479 z"
         style="font-style:normal;font-variant:normal;font-weight:normal;font-stretch:normal;font-size:1004.95977783px;line-height:13.69508553px;font-family:'Fjalla One';-inkscape-font-specification:'Fjalla One';fill:#ffffff;stroke:none;stroke-width:74.99598694;stroke-miterlimit:4;stroke-dasharray:none;stroke-dashoffset:0;stroke-opacity:1"
         id="path4483" />
    </g>
  </g>
</svg>
